<svg xmlns="http://www.w3.org/2000/svg" xmlns:xlink="http://www.w3.org/1999/xlink" version="1.1" x="0px" y="0px" viewBox="0 0 30 30" enable-background="new 0 0 100 100" xml:space="preserve">
	<g>
		<g>
			<path d="M50.058,10.39c21.878,0,39.562,17.69,39.562,39.592c0,20.756-15.947,37.801-36.191,39.444    c-1.12,0.203-2.255,0.203-3.37,0.203c-2.964,0-5.838-0.296-8.589-0.924c-17.79-3.97-31.086-19.833-31.086-38.724    C10.382,28.08,28.182,10.39,50.058,10.39 M50.058,8.358c-23,0-41.716,18.688-41.716,41.623c0,19.315,13.746,36.452,32.676,40.719    c2.86,0.628,5.898,0.941,9.04,0.941c1.232,0,2.493,0,3.721-0.194c21.148-1.708,37.88-19.916,37.88-41.466    C91.658,27.046,72.99,8.358,50.058,8.358L50.058,8.358z"/>
		</g>
		<g>
			<path d="M54.552,42.672c0.609-0.721,1.84-1.237,3.582-1.237c1.628,0,3.574,0.24,5.416,0.757l1.537-8.31    c-3.165-1.108-6.436-1.422-9.813-1.422c-3.38,0-6.043,0.517-8.181,1.754c-2.151,1.182-3.585,2.53-4.397,4.487    c-0.819,1.755-1.228,4.69-1.228,8.384v3.269h-6.553v9.491h6.553v29.86c2.751,0.628,5.625,0.924,8.589,0.924    c1.115,0,2.25,0,3.37-0.203V59.845h8.687v-9.491h-8.687v-3.065C53.428,44.943,53.737,43.503,54.552,42.672z"/>
		</g>
	</g>
</svg>